# xmcd
#
# Track frame offsets: 
#        150
#        10513
#        22181
#        32262
#        42946
#        57614
#        68271
#        80395
#        93376
#        105300
#        116582
#        128149
#        143271
#        153474
#        167756
#        180949
#        193131
#        205883
#        219177
#        230719
#        244684
#        258636
#        271970
#        287613
#        301540
#        314711
#        326695
#        341625
#
# Disc length: 4714 seconds
#
# Revision: 0
# Processed by: cddbd v1.5.2PL0 Copyright (c) Steve Scherf et al.
# Submitted via: ExactAudioCopy v1.0b3
#
DISCID=7b12681c
DTITLE=The Louvin Brothers - The Christian Life CD4
DYEAR=2013
DGENRE=Country
TTITLE0=The Christian Life
TTITLE1=Are You Afraid To Die?
TTITLE2=He Can Be Found
TTITLE3=There's A Higher Power
TTITLE4=The Drunkard's Doom
TTITLE5=The Last Old Shovel
TTITLE6=Midnight Special
TTITLE7=Brown's Ferry Blues
TTITLE8=Southern Moon
TTITLE9=Sand Mountain Blues
TTITLE10=Nashville Blues
TTITLE11=Blues Stay Away From Me
TTITLE12=When It's Time For The Whippoorwill To Sing
TTITLE13=Put Me On The Trail To Carolina
TTITLE14=Freight Train Boogie
TTITLE15=Weary Lonesome Blues
TTITLE16=Gonna Lay Down My Old Guitar
TTITLE17=I Love You Best Of All
TTITLE18=How's The World Treating You?
TTITLE19=I Died For The Red, White, And Blue
TTITLE20=Searching For A Soldier's Grave
TTITLE21=At Mail Call Today
TTITLE22=Soldier's Last Letter
TTITLE23=There's A Star Spangled Banner Waving Somewhere
TTITLE24=There's A Grave In The Wave Of The Ocean
TTITLE25=Mother, I Thank You For The Bible You Gave
TTITLE26=A Seaman's Girl
TTITLE27=Must You Throw Dirt In My Face?
EXTD=
EXTT0=
EXTT1=
EXTT2=
EXTT3=
EXTT4=
EXTT5=
EXTT6=
EXTT7=
EXTT8=
EXTT9=
EXTT10=
EXTT11=
EXTT12=
EXTT13=
EXTT14=
EXTT15=
EXTT16=
EXTT17=
EXTT18=
EXTT19=
EXTT20=
EXTT21=
EXTT22=
EXTT23=
EXTT24=
EXTT25=
EXTT26=
EXTT27=
PLAYORDER=
